<?xml version="1.0" encoding="utf-8"?>
<svg x="739.796pt" y="63.0086pt" width="480.638pt" height="44.7376pt" viewBox="739.796 63.0086 480.638 44.7376" xmlns="http://www.w3.org/2000/svg" xmlns:xlink="http://www.w3.org/1999/xlink">
  <defs>
    <title>Path</title>
    <g id="1">
      <defs>
        <path id="2" d="M768.286,66.6823 C768.107,69.9144,768.794,73.3497,768.044,76.4956 C768.02,68.1926,758.143,65.4508,751.684,68.5479 C748.861,69.9019,746.171,70.6591,745.781,74.373 C745.61,75.9996,746.105,77.5978,746.931,78.9725 C747.704,80.2594,748.117,81.8423,749.377,82.7952 C751.856,84.6719,754.147,84.0369,756.967,84.4221 C759.392,84.7533,761.617,85.7038,763.893,86.5418 C768.179,88.1201,771.219,92.8505,768.791,97.2938 C765.589,103.152,757.094,103.563,751.585,102.216 C750.168,101.87,748.698,102.111,747.42,101.245 C744.881,99.5244,744.675,97.1946,743.814,94.5471 C742.76,96.5487,743.672,100.077,743.571,102.301"/>
      </defs>
      <use xlink:href="#2" style="fill:none;opacity:1;stroke:#ffffff;stroke-linecap:round;stroke-linejoin:round;stroke-miterlimit:10;stroke-opacity:1;stroke-width:7;"/>
    </g>
  </defs>
  <use xlink:href="#1"/>
  <defs>
    <title>Path</title>
    <g id="3">
      <defs>
        <path id="4" d="M774.95,101.816 C778.373,101.572,782.494,103.723,785.732,102.422 C784.395,102.207,780.935,103.12,779.979,102.282 C778.823,101.267,778.953,96.2518,778.948,94.729 C778.928,88.7844,779.691,82.0956,780.67,76.2177 C780.979,74.3581,781.77,69.9556,780.406,68.4195 C779.652,67.5701,776.17,68.1361,775.071,68.1361 C776.395,67.8449,780.665,67.0262,781.857,67.5271 C782.869,67.9518,783.436,71.1065,783.779,72.086 C785.306,76.4357,788.216,80.1841,789.47,84.6342 C790.046,86.6778,790.332,88.6989,791.03,90.6942 C791.207,91.1983,791.363,92.5778,791.99,92.7296 C792.971,92.9674,794.269,90.5872,794.588,89.9143 C796.317,86.2594,798.239,82.465,799.629,78.6841 C800.796,75.5092,803.417,69.69,806.82,68.5792 C809.237,67.7904,811.665,68.5987,814.082,68.1361 C813.126,68.1361,809.686,67.758,809.023,68.4009 C808.655,68.7578,808.872,69.9589,808.872,70.4304 C808.872,72.4523,809.114,74.4535,809.114,76.477 C809.114,82.5562,808.266,88.459,808.266,94.5434 C808.266,96.1589,808.309,100.566,807.289,101.838 C806.654,102.632,802.959,102.301,801.966,102.301 C805.464,102.952,809.043,101.849,812.507,102.664"/>
      </defs>
      <use xlink:href="#4" style="fill:none;opacity:1;stroke:#ffffff;stroke-linecap:round;stroke-linejoin:round;stroke-miterlimit:10;stroke-opacity:1;stroke-width:7;"/>
    </g>
  </defs>
  <use xlink:href="#3"/>
  <defs>
    <title>Path</title>
    <g id="5">
      <defs>
        <path id="6" d="M816.626,102.664 C819.13,102.778,821.631,102.907,824.137,102.907 C822.754,102.909,818.15,104.308,817.179,103.113 C815.939,101.584,817.994,97.4732,818.503,95.9374 C820.775,89.0913,824.297,82.8715,826.734,76.0816 C827.406,74.2103,828.306,72.3822,829.147,70.5805 C829.338,70.1708,830.031,69.111,829.73,68.6684 C829.299,68.0339,827.196,68.608,826.532,68.6186 C823.828,68.6618,819.805,69.0101,817.231,68.2573 C820.676,67.9985,824.141,66.9679,827.616,66.6201 C829.003,66.4812,831.101,66.3356,832.178,67.4699 C833.133,68.4766,833.273,71.3237,833.919,72.6714 C836.366,77.7813,838.085,83.1564,839.867,88.4965 C840.404,90.1046,840.365,91.8227,841.021,93.4265 C841.737,95.1758,841.864,97.5627,842.871,99.133 C843.25,99.7237,844.611,101.529,844.363,102.258 C844.225,102.663,843.251,102.572,842.921,102.614 C841.511,102.793,840.096,103.09,838.675,103.149 C841.646,103.802,845.193,103.464,848.246,103.633"/>
      </defs>
      <use xlink:href="#6" style="fill:none;opacity:1;stroke:#ffffff;stroke-linecap:round;stroke-linejoin:round;stroke-miterlimit:10;stroke-opacity:1;stroke-width:7;"/>
    </g>
  </defs>
  <use xlink:href="#5"/>
  <defs>
    <title>Path</title>
    <g id="7">
      <defs>
        <path id="8" d="M822.926,91.3972 C827.543,91.1405,832.235,91.1549,836.858,91.1549"/>
      </defs>
      <use xlink:href="#8" style="fill:none;opacity:1;stroke:#ffffff;stroke-linecap:round;stroke-linejoin:round;stroke-miterlimit:10;stroke-opacity:1;stroke-width:7;"/>
    </g>
  </defs>
  <use xlink:href="#7"/>
  <defs>
    <title>Path</title>
    <g id="9">
      <defs>
        <path id="10" d="M851.275,102.664 C854.484,102.843,858.839,102.222,861.815,103.512 C860.705,103.506,857.342,103.24,856.581,102.401 C855.558,101.274,856.711,96.9915,856.726,95.5288 C856.792,88.9787,857.938,82.4385,857.938,75.851 C857.938,74.6321,858.364,70.0463,857.557,69.2557 C856.401,68.123,854.167,68.6207,852.729,68.6207 C859.403,68.197,867.881,66.8952,874.139,69.6079 C876.633,70.6888,879.862,72.4851,880.547,75.389 C882.497,83.6564,871.345,85.3674,865.649,86.2115 C863.553,86.5222,861.893,87.3405,859.756,86.7934 C866.204,86.7934,871.174,87.9604,875.861,92.6075 C877.938,94.667,879.163,97.3234,880.629,99.8171 C881.08,100.585,881.366,102.251,882.132,102.698 C883.394,103.434,886.158,102.93,887.62,103.028"/>
      </defs>
      <use xlink:href="#10" style="fill:none;opacity:1;stroke:#ffffff;stroke-linecap:round;stroke-linejoin:round;stroke-miterlimit:10;stroke-opacity:1;stroke-width:7;"/>
    </g>
  </defs>
  <use xlink:href="#9"/>
  <defs>
    <title>Path</title>
    <g id="11">
      <defs>
        <path id="12" d="M889.849,80.6818 C889.849,77.4485,889.723,74.0304,890.017,70.8128 C890.091,70.0089,890.211,68.0458,890.862,67.4849 C891.184,67.2078,892.004,67.2926,892.402,67.2923 C893.827,67.2912,895.213,67.4869,896.631,67.5743 C902.129,67.9131,907.604,68.463,913.121,68.463 C914.731,68.463,916.324,68.3167,917.933,68.3167 C918.375,68.3167,919.271,68.1483,919.621,68.478 C920.078,68.9087,919.774,70.7225,919.774,71.3257 C919.774,73.0016,919.192,74.2862,918.993,75.8909 C918.829,77.2094,919.106,78.6289,919.189,79.9501"/>
      </defs>
      <use xlink:href="#12" style="fill:none;opacity:1;stroke:#ffffff;stroke-linecap:round;stroke-linejoin:round;stroke-miterlimit:10;stroke-opacity:1;stroke-width:7;"/>
    </g>
  </defs>
  <use xlink:href="#11"/>
  <defs>
    <title>Path</title>
    <g id="13">
      <defs>
        <path id="14" d="M904.556,69.6337 C904.002,74.0533,904.428,78.5748,904.623,82.9965 C904.78,86.5495,904.556,90.1228,904.556,93.6754 C904.556,95.6753,904.556,97.6752,904.556,99.6751 C904.556,100.099,904.715,101.472,904.384,101.771 C904.056,102.069,902.585,101.827,902.139,101.827 C899.984,101.827,897.852,101.827,895.702,101.827 C897.293,102.964,900.132,102.382,901.945,102.259 C904.596,102.078,907.035,102.472,909.658,102.554 C911.269,102.604,912.871,102.264,914.433,102.632"/>
      </defs>
      <use xlink:href="#14" style="fill:none;opacity:1;stroke:#ffffff;stroke-linecap:round;stroke-linejoin:round;stroke-miterlimit:10;stroke-opacity:1;stroke-width:7;"/>
    </g>
  </defs>
  <use xlink:href="#13"/>
  <defs>
    <title>Path</title>
    <g id="15">
      <defs>
        <path id="16" d="M995.657,77.6991 C995.775,75.3183,995.73,72.9294,995.8,70.5486 C995.82,69.8364,996.213,68.6228,995.631,68.0615 C995.139,67.5878,994.159,67.9433,993.562,67.9946 C992.016,68.1272,990.337,68.0838,988.799,67.8962 C986.819,67.6546,985.167,68.1273,983.221,68.2232 C980.239,68.3702,977.252,68.3413,974.272,68.51 C970.989,68.6959,967.631,68.0254,964.355,68.3737 C965.683,68.3737,968.37,68.2872,969.103,69.6861 C970.011,71.4206,969.362,74.1051,969.526,75.9895 C970.052,82.0455,969.994,88.1982,969.994,94.301 C969.994,96.221,969.893,98.1415,969.785,100.057 C969.754,100.598,969.98,101.571,969.663,102.036 C969.413,102.403,968.874,102.367,968.505,102.26 C967.126,101.86,965.812,102.204,964.427,101.989 C967.265,101.989,970.02,102.521,972.841,102.697 C976.164,102.904,979.463,102.856,982.789,102.856"/>
      </defs>
      <use xlink:href="#16" style="fill:none;opacity:1;stroke:#ffffff;stroke-linecap:round;stroke-linejoin:round;stroke-miterlimit:10;stroke-opacity:1;stroke-width:7;"/>
    </g>
  </defs>
  <use xlink:href="#15"/>
  <defs>
    <title>Path</title>
    <g id="17">
      <defs>
        <path id="18" d="M972.813,85.5064 C974.963,85.0763,977.167,85.0729,979.356,85.0727 C980.109,85.0726,981.849,85.1474,982.473,84.7354 C983.831,83.8383,983.801,80.5709,983.801,79.1449 C984.173,80.8375,983.896,82.6926,983.875,84.4056 C983.849,86.4658,984.017,88.5102,984.018,90.5667"/>
      </defs>
      <use xlink:href="#18" style="fill:none;opacity:1;stroke:#ffffff;stroke-linecap:round;stroke-linejoin:round;stroke-miterlimit:10;stroke-opacity:1;stroke-width:7;"/>
    </g>
  </defs>
  <use xlink:href="#17"/>
  <defs>
    <title>Path</title>
    <g id="19">
      <defs>
        <path id="20" d="M996.223,102.224 C998.673,102.102,1001.42,102.158,1003.86,102.47 C1005.28,102.653,1006.74,103.095,1008.17,103.095 C1006.22,103.095,1004.23,102.681,1002.31,102.384 C1001.82,102.309,1000.64,102.154,1000.44,101.601 C1000.26,101.09,1001.03,100.04,1001.25,99.5791 C1002.09,97.782,1002.82,95.9204,1003.65,94.1156 C1006.57,87.8076,1009.9,81.6679,1012.18,75.0821 C1012.7,73.5544,1013.36,72.0852,1013.99,70.5977 C1014.16,70.1792,1014.67,69.449,1014.41,68.988 C1014.1,68.4188,1012.61,68.7276,1012.06,68.6858 C1009.6,68.4985,1006.8,68.3935,1004.37,68.8227 C1007.57,67.7577,1010.97,68.1205,1014.27,67.88 C1015.22,67.8111,1017.24,67.4887,1018.02,68.195 C1018.34,68.4796,1018.19,69.3097,1018.35,69.7125 C1019.16,71.6552,1019.56,73.5057,1020.17,75.4855 C1020.77,77.3965,1021.85,79.1927,1022.67,81.0165 C1023.14,82.0438,1023.25,83.1497,1023.67,84.1862 C1024.4,85.9697,1025.54,87.5969,1026.38,89.3335 C1027.97,92.6125,1029.84,95.9034,1031.13,99.3158 C1031.41,100.066,1031.78,100.73,1032.21,101.401 C1032.33,101.586,1032.73,101.966,1032.59,102.204 C1032.33,102.65,1030.77,102.411,1030.32,102.411 C1028.02,102.411,1025.71,102.41,1023.4,102.411 C1027.59,102.411,1031.79,102.739,1035.97,102.971"/>
      </defs>
      <use xlink:href="#20" style="fill:none;opacity:1;stroke:#ffffff;stroke-linecap:round;stroke-linejoin:round;stroke-miterlimit:10;stroke-opacity:1;stroke-width:7;"/>
    </g>
  </defs>
  <use xlink:href="#19"/>
  <defs>
    <title>Path</title>
    <g id="21">
      <defs>
        <path id="22" d="M1007.54,91.0283 C1012.2,91.0283,1017.21,90.7915,1021.79,91.6503"/>
      </defs>
      <use xlink:href="#22" style="fill:none;opacity:1;stroke:#ffffff;stroke-linecap:round;stroke-linejoin:round;stroke-miterlimit:10;stroke-opacity:1;stroke-width:7;"/>
    </g>
  </defs>
  <use xlink:href="#21"/>
  <defs>
    <title>Path</title>
    <g id="23">
      <defs>
        <path id="24" d="M1067.18,66.8121 C1067.18,70.2333,1067.12,73.6486,1067.12,77.0789 C1066.96,74.5833,1065.31,72.8349,1063.57,71.2217 C1062.48,70.2079,1061.61,69.1843,1060.28,68.4405 C1055.38,65.7161,1049.42,66.7371,1044.67,69.229 C1039.98,71.6932,1038.8,76.051,1037.93,80.9082 C1037.54,83.061,1037.09,85.0127,1037.11,87.2237 C1037.13,89.448,1037.48,92.1337,1038.22,94.2336 C1038.71,95.6183,1039.59,97.1898,1040.49,98.3477 C1041.31,99.4116,1042.29,100.612,1043.37,101.422 C1050.19,106.501,1060.74,103.9,1067.35,99.8253 C1068.28,99.2492,1069.12,98.3824,1069.96,97.6728"/>
      </defs>
      <use xlink:href="#24" style="fill:none;opacity:1;stroke:#ffffff;stroke-linecap:round;stroke-linejoin:round;stroke-miterlimit:10;stroke-opacity:1;stroke-width:7;"/>
    </g>
  </defs>
  <use xlink:href="#23"/>
  <defs>
    <title>Path</title>
    <g id="25">
      <defs>
        <path id="26" d="M1074.55,80.4005 C1074.37,77.4812,1074.13,74.6084,1074.13,71.6819 C1074.13,70.7768,1074.01,69.0163,1074.63,68.2764 C1074.9,67.9671,1075.87,68.1408,1076.24,68.1408 C1077.73,68.1408,1079.21,68.02,1080.7,68.02 C1086.62,68.02,1092.53,67.718,1098.44,67.718 C1100.1,67.718,1101.73,67.4811,1103.37,67.4765 C1103.73,67.4756,1104.73,67.3031,1104.99,67.5815 C1105.44,68.0552,1105.01,70.3739,1104.95,71.0167 C1104.68,73.8511,1105.4,76.5609,1104.99,79.4342"/>
      </defs>
      <use xlink:href="#26" style="fill:none;opacity:1;stroke:#ffffff;stroke-linecap:round;stroke-linejoin:round;stroke-miterlimit:10;stroke-opacity:1;stroke-width:7;"/>
    </g>
  </defs>
  <use xlink:href="#25"/>
  <defs>
    <title>Path</title>
    <g id="27">
      <defs>
        <path id="28" d="M1089.65,69.7714 C1089.65,73.5797,1090.26,77.3512,1090.25,81.1424 C1090.24,85.1967,1089.59,89.2527,1089.25,93.2826 C1089.08,95.2415,1089.21,97.2241,1089,99.1754 C1088.95,99.6621,1089.1,100.657,1088.75,101.034 C1088.27,101.547,1086.98,101.572,1086.33,101.628 C1084.48,101.788,1082.2,101.491,1080.47,102.142 C1082.83,103.057,1085.98,102.543,1088.45,102.45 C1092.39,102.302,1096.31,102.625,1100.22,102.625"/>
      </defs>
      <use xlink:href="#28" style="fill:none;opacity:1;stroke:#ffffff;stroke-linecap:round;stroke-linejoin:round;stroke-miterlimit:10;stroke-opacity:1;stroke-width:7;"/>
    </g>
  </defs>
  <use xlink:href="#27"/>
  <defs>
    <title>Path</title>
    <g id="29">
      <defs>
        <path id="30" d="M1131.5,67.718 C1128.1,66.9193,1124.39,66.2106,1120.99,67.4179 C1117.02,68.8278,1113.43,72.5022,1111.91,76.4418 C1111.38,77.8138,1111.22,79.2384,1110.94,80.6692 C1110.5,82.8874,1110.21,85.5217,1110.76,87.7496 C1112.39,94.3675,1117.69,100.13,1124.41,101.732 C1126.88,102.321,1129.93,102.869,1132.43,102.204 C1141.14,99.882,1144.7,89.3801,1142.45,81.4091 C1141.37,77.5765,1139.24,74.3428,1136.27,71.6932 C1134.8,70.3839,1133.51,67.9867,1131.5,67.718 z"/>
      </defs>
      <use xlink:href="#30" style="fill:none;opacity:1;stroke:#ffffff;stroke-linecap:round;stroke-linejoin:round;stroke-miterlimit:10;stroke-opacity:1;stroke-width:7;"/>
    </g>
  </defs>
  <use xlink:href="#29"/>
  <defs>
    <title>Path</title>
    <g id="31">
      <defs>
        <path id="32" d="M1147.5,102.806 C1149.74,102.508,1151.93,102.355,1154.18,102.266 C1155.19,102.225,1156.44,101.993,1157.41,102.323 C1156.82,102.807,1155.74,102.164,1155.16,101.851 C1153.17,100.775,1151.94,99.6724,1152.11,97.2404 C1152.23,95.5585,1152.66,93.9076,1152.77,92.2179 C1153.11,86.955,1153.21,81.6918,1153.88,76.4515 C1154.14,74.4198,1154.09,72.2247,1153.97,70.1817 C1153.94,69.6849,1154.25,68.5896,1153.95,68.1791 C1153.73,67.8747,1152.92,68.02,1152.59,68.02 C1151.27,68.02,1149.97,68.2615,1148.65,68.2615 C1150.67,67.6877,1153.23,67.7215,1155.32,67.7181 C1156.73,67.7158,1158.14,67.8374,1159.54,67.8388 C1164.65,67.8438,1170.21,67.2971,1174.08,71.1665 C1174.91,71.993,1175.85,73.0812,1176.15,74.2417 C1176.79,76.714,1174.28,80.0567,1172.44,81.4396 C1171.12,82.4338,1169.9,83.5339,1168.41,84.2805 C1164.76,86.104,1159.95,86.6928,1155.96,87.2852 C1161.94,86.4292,1169.48,87.4142,1173.91,91.9466 C1175.14,93.2126,1176.18,94.5277,1176.66,96.2622 C1177.07,97.774,1177.31,100.328,1178.73,101.308 C1179.83,102.073,1181.89,101.759,1183.2,102.021"/>
      </defs>
      <use xlink:href="#32" style="fill:none;opacity:1;stroke:#ffffff;stroke-linecap:round;stroke-linejoin:round;stroke-miterlimit:10;stroke-opacity:1;stroke-width:7;"/>
    </g>
  </defs>
  <use xlink:href="#31"/>
  <defs>
    <title>Path</title>
    <g id="33">
      <defs>
        <path id="34" d="M1185.07,67.8494 C1187.88,67.8494,1190.67,67.9394,1193.47,67.909 C1192.26,68.1542,1190.96,68.0281,1189.73,68.0281 C1189.52,68.0281,1188.63,67.9035,1188.54,68.1523 C1188.44,68.4208,1188.91,69.0489,1189.02,69.2933 C1189.52,70.3811,1190.17,71.4894,1190.75,72.5435 C1193.26,77.1595,1197.48,80.7457,1200.08,85.2979 C1200.79,84.8905,1201.07,84.0144,1201.58,83.4115 C1202.62,82.1571,1203.76,81.0214,1204.77,79.731 C1207.7,75.9755,1210.91,72.4144,1213.48,68.3854 C1212.03,67.8234,1210.14,67.8494,1208.6,67.8494 C1211.31,67.6324,1214.22,67.4304,1216.93,67.6112"/>
      </defs>
      <use xlink:href="#34" style="fill:none;opacity:1;stroke:#ffffff;stroke-linecap:round;stroke-linejoin:round;stroke-miterlimit:10;stroke-opacity:1;stroke-width:7;"/>
    </g>
  </defs>
  <use xlink:href="#33"/>
  <defs>
    <title>Path</title>
    <g id="35">
      <defs>
        <path id="36" d="M1201.45,85.8934 C1200.52,91.4861,1200.5,97.083,1200.5,102.746 C1200.22,102.065,1199.08,102.492,1198.53,102.547 C1197.02,102.697,1195.54,102.823,1194.03,102.935 C1193.5,102.974,1192.68,103.309,1192.28,102.865 C1198.36,102.865,1204.46,102.798,1210.5,103.401"/>
      </defs>
      <use xlink:href="#36" style="fill:none;opacity:1;stroke:#ffffff;stroke-linecap:round;stroke-linejoin:round;stroke-miterlimit:10;stroke-opacity:1;stroke-width:7;"/>
    </g>
  </defs>
  <use xlink:href="#35"/>
</svg>
